# xmcd
#
# Track frame offsets:
#	150
#	16350
#	35642
#	51825
#
# Disc length: 939 seconds
#
# Revision: 1
# Processed by: cddbd v1.5PL3 Copyright (c) Steve Scherf et al.
# Submitted via: CDex 1.50Beta5
#
DISCID=2d03a904
DTITLE=Gemini - ひとりじゃないの
DYEAR=2001
DGENRE=Pop
TTITLE0=ひとりじゃないの
TTITLE1=コスモバス
TTITLE2=ひとりじゃないの(インストルメンタル)
TTITLE3=コスモバス(インストルメンタル)
EXTD=
EXTT0=
EXTT1=
EXTT2=
EXTT3=
PLAYORDER=
